<?xml version="1.0" encoding="utf-8"?>
<!-- Generator: Adobe Illustrator 24.1.2, SVG Export Plug-In . SVG Version: 6.00 Build 0)  -->
<svg version="1.1" id="Layer_1" xmlns="http://www.w3.org/2000/svg" xmlns:xlink="http://www.w3.org/1999/xlink" x="0px" y="0px"
	 viewBox="0 0 283.46 283.46" style="enable-background:new 0 0 283.46 283.46;" xml:space="preserve">
<style type="text/css">
	.st0{fill:#8D8DE2;}
	.st1{fill:#3A3A9B;}
</style>
<path class="st0" d="M207.9,139.25c-2.11-2.11-4.23-4.22-6.34-6.34c-2.86-2.87-5.64-5.87-8.06-9.11c-4.97-6.67-4.89-12.07,0.11-18.8
	c1.91-2.57,4.08-4.99,6.34-7.27c4.34-4.36,8.69-8.71,13.04-13.07l46.86-47.78c0.06-0.07,0.11-0.12,0.17-0.19
	c-13.06-0.01-24.06-0.01-35.92,0.07c-3.2,0.02-7.02,0.99-9.28,3.18c-16.07,15.64-31.94,31.49-47.55,47.58
	c-6.6,6.8-11.68,14.73-12.43,24.62c-0.91,12.19,5.03,21.63,12.96,29.87c13.51,14.03,27.54,27.56,41.06,41.57
	c6.04,6.26,11.79,9.61,21.03,9.45c9.67-0.17,19.82-0.11,29.59-0.11c0.58-0.05,0.76-0.03,1.32-0.04L207.9,139.25z"/>
<path class="st1" d="M188.88,112.8c-0.74-9.88-5.82-17.81-12.41-24.6c-15.6-16.07-31.46-31.91-47.51-47.53
	c-2.25-2.19-6.14-3.65-9.33-3.77c-11.81-0.44-23.64-0.04-36.51-0.04c0.13,0.15,0.26,0.28,0.38,0.43l34.9,35.54
	c8.46,8.52,16.92,17.04,25.41,25.57c2.26,2.27,4.43,4.69,6.34,7.26c5,6.72,5.08,12.12,0.11,18.78c-2.41,3.24-5.19,6.24-8.05,9.1
	c-10.54,10.57-20.39,20.48-30.74,30.93l0,0l-28.6,29.19c0.45,0,0.62,0.02,1.13,0.01c9.76,0,19.39,0.23,29.28,0.14
	c9.24-0.08,15.59-3.38,21.63-9.64c13.51-14,27.53-27.51,41.02-41.53C183.86,134.41,189.8,124.98,188.88,112.8z"/>
<path class="st1" d="M109,164.82H74.83c-7.56,0-13.69-6.13-13.69-13.69V79.4c0-7.56,6.13-13.69,13.69-13.69h34.44v-0.03L80.83,36.73
	H51.18c-13.54,0-24.52,10.9-24.52,24.34v108.29c0,13.44,10.98,24.34,24.52,24.34H80.7L109,164.82z"/>
<g>
	<g>
		<g>
			<path class="st1" d="M65.62,234.33c-1.66,3-3.99,5.24-6.99,6.71c-3,1.47-6.54,2.2-10.61,2.2c-1.3,0-2.8-0.05-4.5-0.16
				c-1.7-0.11-3.31-0.39-4.82-0.85c-1.76-0.55-2.65-1.51-2.65-2.9v-32.37c0-0.67,0.18-1.19,0.54-1.54c0.36-0.36,0.87-0.64,1.54-0.85
				c1.3-0.42,2.77-0.69,4.41-0.82c1.64-0.13,3.27-0.19,4.91-0.19c4.11,0,7.72,0.72,10.8,2.17c3.09,1.45,5.5,3.6,7.24,6.46
				c1.74,2.86,2.61,6.45,2.61,10.77C68.11,227.54,67.28,231.33,65.62,234.33z M60.77,214.24c-1.41-2.2-3.27-3.82-5.6-4.85
				c-2.33-1.03-4.92-1.54-7.78-1.54c-1.3,0-2.46,0.04-3.46,0.13c-1.01,0.08-1.93,0.21-2.77,0.38v29.98c1.01,0.25,2.09,0.42,3.24,0.5
				c1.15,0.08,2.34,0.13,3.56,0.13c4.91,0,8.63-1.35,11.15-4.06c2.52-2.71,3.78-6.69,3.78-11.94
				C62.88,219.35,62.18,216.44,60.77,214.24z"/>
			<path class="st1" d="M86.57,212.63c3.65,0,6.55,0.82,8.69,2.46c2.14,1.64,3.21,4.22,3.21,7.75v14.93c0,0.92-0.18,1.63-0.54,2.11
				c-0.36,0.48-0.89,0.93-1.61,1.35c-1.01,0.55-2.35,1.05-4.03,1.51c-1.68,0.46-3.57,0.69-5.67,0.69c-3.95,0-7-0.78-9.16-2.33
				c-2.16-1.55-3.24-3.8-3.24-6.74c0-2.73,0.91-4.82,2.74-6.27c1.83-1.45,4.36-2.32,7.59-2.61l8.94-0.88v-1.76
				c0-2.1-0.63-3.63-1.89-4.6c-1.26-0.96-2.96-1.45-5.1-1.45c-1.72,0-3.37,0.25-4.94,0.76c-1.57,0.5-2.97,1.07-4.19,1.7
				c-0.34-0.29-0.64-0.64-0.91-1.04c-0.27-0.4-0.41-0.81-0.41-1.23c0-1.09,0.61-1.93,1.83-2.52c1.13-0.59,2.45-1.04,3.94-1.35
				C83.3,212.79,84.89,212.63,86.57,212.63z M86.63,239.27c1.76,0,3.22-0.18,4.38-0.54c1.15-0.36,1.98-0.7,2.49-1.04v-9.13
				l-7.81,0.82c-2.18,0.17-3.8,0.65-4.85,1.45c-1.05,0.8-1.57,1.95-1.57,3.46c0,1.55,0.62,2.77,1.86,3.65
				C82.36,238.83,84.19,239.27,86.63,239.27z"/>
			<path class="st1" d="M112.77,227.81h-5.04v-22.8c0.21-0.08,0.54-0.18,0.98-0.28c0.44-0.1,0.91-0.16,1.42-0.16
				c0.88,0,1.54,0.18,1.98,0.54c0.44,0.36,0.66,0.94,0.66,1.73V227.81z M107.73,225.92h5.04v8.69c0,1.68,0.48,2.87,1.45,3.56
				c0.97,0.69,2.29,1.04,3.97,1.04c0.71,0,1.51-0.13,2.39-0.38c0.88-0.25,1.62-0.54,2.2-0.88c0.25,0.25,0.48,0.57,0.69,0.94
				c0.21,0.38,0.31,0.82,0.31,1.32c0,0.92-0.55,1.68-1.64,2.27c-1.09,0.59-2.6,0.88-4.53,0.88c-2.94,0-5.32-0.65-7.15-1.95
				s-2.74-3.46-2.74-6.49V225.92z M110.31,218.23v-4.16h12.79c0.13,0.17,0.25,0.44,0.38,0.82s0.19,0.78,0.19,1.2
				c0,0.67-0.17,1.2-0.5,1.57c-0.34,0.38-0.8,0.57-1.39,0.57H110.31z"/>
			<path class="st1" d="M141.42,212.63c3.65,0,6.55,0.82,8.69,2.46s3.21,4.22,3.21,7.75v14.93c0,0.92-0.18,1.63-0.54,2.11
				c-0.36,0.48-0.89,0.93-1.61,1.35c-1.01,0.55-2.35,1.05-4.03,1.51c-1.68,0.46-3.57,0.69-5.67,0.69c-3.95,0-7-0.78-9.16-2.33
				c-2.16-1.55-3.24-3.8-3.24-6.74c0-2.73,0.91-4.82,2.74-6.27c1.83-1.45,4.36-2.32,7.59-2.61l8.94-0.88v-1.76
				c0-2.1-0.63-3.63-1.89-4.6c-1.26-0.96-2.96-1.45-5.1-1.45c-1.72,0-3.37,0.25-4.94,0.76c-1.57,0.5-2.97,1.07-4.19,1.7
				c-0.34-0.29-0.64-0.64-0.91-1.04c-0.27-0.4-0.41-0.81-0.41-1.23c0-1.09,0.61-1.93,1.83-2.52c1.13-0.59,2.45-1.04,3.94-1.35
				C138.16,212.79,139.74,212.63,141.42,212.63z M141.48,239.27c1.76,0,3.22-0.18,4.38-0.54c1.15-0.36,1.98-0.7,2.49-1.04v-9.13
				l-7.81,0.82c-2.18,0.17-3.8,0.65-4.85,1.45c-1.05,0.8-1.57,1.95-1.57,3.46c0,1.55,0.62,2.77,1.86,3.65
				C137.21,238.83,139.05,239.27,141.48,239.27z"/>
			<path class="st1" d="M168.57,223.97h-5.16v-19.59c0.21-0.08,0.54-0.18,0.98-0.28c0.44-0.1,0.91-0.16,1.42-0.16
				c0.92,0,1.62,0.18,2.08,0.54c0.46,0.36,0.69,0.96,0.69,1.79V223.97z M163.4,219.75h5.16v22.67c-0.25,0.08-0.59,0.18-1.01,0.28
				c-0.42,0.1-0.88,0.16-1.39,0.16c-0.92,0-1.62-0.19-2.08-0.57s-0.69-0.97-0.69-1.76V219.75z M190.93,225.29h-24.44v-4.28h24.44
				V225.29z M193.38,223.97h-5.17v-19.59c0.21-0.08,0.54-0.18,0.98-0.28c0.44-0.1,0.91-0.16,1.42-0.16c0.92,0,1.62,0.18,2.08,0.54
				c0.46,0.36,0.69,0.96,0.69,1.79V223.97z M188.22,219.75h5.17v22.67c-0.25,0.08-0.59,0.18-1.01,0.28
				c-0.42,0.1-0.88,0.16-1.39,0.16c-0.92,0-1.62-0.19-2.08-0.57c-0.46-0.38-0.69-0.97-0.69-1.76V219.75z"/>
			<path class="st1" d="M205.54,231.21l-0.25-3.97l19.02-2.58c-0.17-2.31-0.97-4.21-2.39-5.7c-1.43-1.49-3.4-2.24-5.92-2.24
				c-2.6,0-4.75,0.93-6.46,2.8c-1.7,1.87-2.55,4.54-2.55,8.03v1.39c0.29,3.36,1.4,5.91,3.31,7.65c1.91,1.74,4.52,2.61,7.84,2.61
				c1.76,0,3.36-0.29,4.79-0.88c1.43-0.59,2.56-1.22,3.4-1.89c0.46,0.29,0.83,0.64,1.1,1.04c0.27,0.4,0.41,0.85,0.41,1.35
				c0,0.8-0.45,1.54-1.35,2.24c-0.9,0.69-2.1,1.25-3.59,1.67c-1.49,0.42-3.16,0.63-5.01,0.63c-3.23,0-6.04-0.59-8.41-1.76
				c-2.37-1.18-4.2-2.93-5.48-5.26c-1.28-2.33-1.92-5.17-1.92-8.53c0-2.39,0.35-4.52,1.04-6.39c0.69-1.87,1.66-3.45,2.9-4.75
				c1.24-1.3,2.72-2.3,4.44-2.99c1.72-0.69,3.59-1.04,5.61-1.04c2.56,0,4.82,0.55,6.77,1.64c1.95,1.09,3.48,2.61,4.6,4.57
				c1.11,1.95,1.67,4.19,1.67,6.71c0,0.92-0.21,1.58-0.63,1.98c-0.42,0.4-1.01,0.64-1.76,0.72L205.54,231.21z"/>
			<path class="st1" d="M245.15,226.11l0.94-0.44c1.72-2.23,3.34-4.3,4.85-6.24c1.51-1.93,3.06-4.05,4.66-6.36
				c0.17-0.04,0.29-0.06,0.38-0.06c0.08,0,0.19,0,0.31,0c0.88,0,1.57,0.2,2.08,0.6c0.5,0.4,0.76,0.93,0.76,1.61
				c0,0.46-0.09,0.9-0.28,1.32c-0.19,0.42-0.49,0.9-0.91,1.45c-1.43,1.76-2.89,3.55-4.38,5.35c-1.49,1.81-2.95,3.57-4.38,5.29
				l-1.64,1.39c-1.55,2.06-3.15,4.19-4.79,6.39s-3.21,4.36-4.72,6.46c-0.17,0-0.32,0-0.44,0s-0.27,0-0.44,0
				c-0.97,0-1.69-0.21-2.17-0.63c-0.48-0.42-0.72-0.95-0.72-1.58c0-0.33,0.07-0.69,0.22-1.07c0.15-0.38,0.49-0.9,1.04-1.58
				c1.51-2.01,3.11-4,4.79-5.95C241.98,230.11,243.6,228.12,245.15,226.11z M248.24,226.23l1.13,0.76c1.72,2.27,3.45,4.5,5.2,6.71
				c1.74,2.2,3.47,4.42,5.2,6.64c-0.08,0.8-0.36,1.43-0.82,1.89c-0.46,0.46-1.07,0.69-1.83,0.69c-0.67,0-1.24-0.18-1.7-0.54
				s-0.99-0.91-1.57-1.67c-1.26-1.76-2.59-3.63-4-5.61c-1.41-1.97-2.74-3.82-4-5.54l-1.45-1.32c-1.85-2.23-3.57-4.35-5.17-6.36
				s-3.23-4.09-4.91-6.24c0.17-0.84,0.48-1.49,0.94-1.95s1.03-0.69,1.7-0.69c0.71,0,1.28,0.18,1.7,0.54
				c0.42,0.36,0.84,0.83,1.26,1.42c1.26,1.68,2.58,3.52,3.97,5.51C245.28,222.47,246.73,224.39,248.24,226.23z"/>
		</g>
	</g>
</g>
</svg>
